<?xml version="1.0" encoding="UTF-8" standalone="no"?>
<!-- Generated by Pixelmator Pro 3.7.1 -->

<svg
   width="256"
   height="256"
   viewBox="0 0 256 256"
   version="1.1"
   id="svg1"
   sodipodi:docname="kairo.svg"
   inkscape:version="1.4.3 (0d15f75042, 2025-12-25)"
   inkscape:export-filename="kairo.png"
   inkscape:export-xdpi="18"
   inkscape:export-ydpi="18"
   xmlns:inkscape="http://www.inkscape.org/namespaces/inkscape"
   xmlns:sodipodi="http://sodipodi.sourceforge.net/DTD/sodipodi-0.dtd"
   xmlns="http://www.w3.org/2000/svg"
   xmlns:svg="http://www.w3.org/2000/svg">
  <defs
     id="defs1" />
  <sodipodi:namedview
     id="namedview1"
     pagecolor="#ffffff"
     bordercolor="#000000"
     borderopacity="0.25"
     inkscape:showpageshadow="2"
     inkscape:pageopacity="0.0"
     inkscape:pagecheckerboard="0"
     inkscape:deskcolor="#d1d1d1"
     inkscape:zoom="1"
     inkscape:cx="522.5"
     inkscape:cy="160"
     inkscape:window-width="3352"
     inkscape:window-height="1364"
     inkscape:window-x="0"
     inkscape:window-y="0"
     inkscape:window-maximized="1"
     inkscape:current-layer="svg1" />
  <path
     id="Path"
     fill="#020617"
     stroke="none"
     d="m 64,0 h 128 c 35.34622,0 64,28.653771 64,64 V 191.99999 C 256,227.34623 227.34622,256 192,256 H 64 C 28.653776,256 2.1536085e-8,227.34623 2.1536085e-8,191.99999 V 64 C 2.1536085e-8,28.653771 28.653776,0 64,0 Z"
     style="stroke-width:1.23077" />
  <path
     id="path1"
     fill="none"
     stroke="#0f172a"
     stroke-width="4.92307"
     d="M 68.923077,9.8461537 H 187.07692 c 32.62729,0 59.07693,26.4496313 59.07693,59.0769233 V 187.07692 c 0,32.62729 -26.44964,59.07692 -59.07693,59.07692 H 68.923077 c -32.627281,0 -59.0769231,-26.44963 -59.0769231,-59.07692 V 68.923077 c 0,-32.627292 26.4496421,-59.0769233 59.0769231,-59.0769233 z" />
  <path
     id="path2"
     fill="none"
     stroke="#38bdf8"
     stroke-width="14.5724"
     stroke-linecap="round"
     stroke-linejoin="round"
     d="m 35.01689,70.709198 c 47.44465,0 71.16698,22.916315 94.88929,40.103562" />
  <path
     id="path3"
     fill="none"
     stroke="#14b8a6"
     stroke-width="14.5724"
     stroke-linecap="round"
     stroke-linejoin="round"
     d="m 35.01689,185.2908 c 47.44465,0 71.16698,-22.91631 94.88929,-40.10356" />
  <path
     id="path4"
     fill="none"
     stroke="#38bdf8"
     stroke-width="13.7593"
     stroke-linecap="round"
     d="m 145.85074,128 h 55.37545" />
  <path
     id="path5"
     fill="#020617"
     stroke="#14b8a6"
     stroke-width="7.38461"
     d="m 161.23076,128 c 0,10.87577 -8.81653,19.69231 -19.69229,19.69231 -10.87577,0 -19.69232,-8.81654 -19.69232,-19.69231 0,-10.87576 8.81655,-19.69231 19.69232,-19.69231 10.87576,0 19.69229,8.81655 19.69229,19.69231 z" />
  <path
     id="path6"
     fill="#14b8a6"
     stroke="none"
     d="m 148.92308,128 c 0,4.07841 -3.30622,7.38461 -7.38461,7.38461 -4.07842,0 -7.38462,-3.3062 -7.38462,-7.38461 0,-4.07841 3.3062,-7.38461 7.38462,-7.38461 4.07839,0 7.38461,3.3062 7.38461,7.38461 z"
     style="stroke-width:1.23077" />
  <path
     id="path7"
     fill="#e5e7eb"
     stroke="none"
     d="m 208.01334,108.66124 h 12.67457 c 6.99998,0 12.67458,4.32914 12.67458,9.66939 v 19.33874 c 0,5.34025 -5.6746,9.66939 -12.67458,9.66939 h -12.67457 c -6.99998,0 -12.67458,-4.32914 -12.67458,-9.66939 v -19.33874 c 0,-5.34025 5.6746,-9.66939 12.67458,-9.66939 z"
     style="stroke-width:1.38381" />
  <path
     id="path8"
     fill="#cbd5f5"
     stroke="none"
     d="m 209.59767,112.28727 h 9.50593 c 5.24997,0 9.50593,3.24683 9.50593,7.25203 v 16.9214 c 0,4.0052 -4.25596,7.25203 -9.50593,7.25203 h -9.50593 c -5.24999,0 -9.50594,-3.24683 -9.50594,-7.25203 v -16.9214 c 0,-4.0052 4.25595,-7.25203 9.50594,-7.25203 z"
     style="stroke-width:1.38381" />
  <path
     id="path9"
     fill="#38bdf8"
     stroke="none"
     d="m 221.76192,128 -12.67459,7.25203 v -14.50406 z"
     style="stroke-width:1.38381" />
</svg>
