<?xml version="1.0" encoding="UTF-8"?>
<!-- Generated by Pixelmator Pro 3.7.1 -->
<svg width="256" height="256" viewBox="0 0 256 256" xmlns="http://www.w3.org/2000/svg">
    <path id="Path" fill="#020617" stroke="none" d="M 76 24 L 180 24 C 208.718811 24 232 47.281189 232 76 L 232 180 C 232 208.718811 208.718811 232 180 232 L 76 232 C 47.281193 232 24 208.718811 24 180 L 24 76 C 24 47.281189 47.281193 24 76 24 Z"/>
    <path id="path1" fill="none" stroke="#0f172a" stroke-width="4" d="M 80 32 L 176 32 C 202.509674 32 224 53.490326 224 80 L 224 176 C 224 202.509674 202.509674 224 176 224 L 80 224 C 53.490334 224 32 202.509674 32 176 L 32 80 C 32 53.490326 53.490334 32 80 32 Z"/>
    <path id="path2" fill="none" stroke="#38bdf8" stroke-width="10" stroke-linecap="round" stroke-linejoin="round" d="M 59 88 C 91 88 107 104 123 116"/>
    <path id="path3" fill="none" stroke="#14b8a6" stroke-width="10" stroke-linecap="round" stroke-linejoin="round" d="M 59 168 C 91 168 107 152 123 140"/>
    <path id="path4" fill="none" stroke="#38bdf8" stroke-width="10" stroke-linecap="round" d="M 147 128 L 183 128"/>
    <path id="path5" fill="#020617" stroke="#14b8a6" stroke-width="6" d="M 155 128 C 155 136.836563 147.836563 144 139 144 C 130.163437 144 123 136.836563 123 128 C 123 119.163452 130.163437 112 139 112 C 147.836563 112 155 119.163452 155 128 Z"/>
    <path id="path6" fill="#14b8a6" stroke="none" d="M 145 128 C 145 131.313705 142.313705 134 139 134 C 135.686295 134 133 131.313705 133 128 C 133 124.686295 135.686295 122 139 122 C 142.313705 122 145 124.686295 145 128 Z"/>
    <path id="path7" fill="#e5e7eb" stroke="none" d="M 191 112 L 199 112 C 203.418274 112 207 115.581726 207 120 L 207 136 C 207 140.418274 203.418274 144 199 144 L 191 144 C 186.581726 144 183 140.418274 183 136 L 183 120 C 183 115.581726 186.581726 112 191 112 Z"/>
    <path id="path8" fill="#cbd5f5" stroke="none" d="M 192 115 L 198 115 C 201.313705 115 204 117.686295 204 121 L 204 135 C 204 138.313705 201.313705 141 198 141 L 192 141 C 188.686295 141 186 138.313705 186 135 L 186 121 C 186 117.686295 188.686295 115 192 115 Z"/>
    <path id="path9" fill="#38bdf8" stroke="none" d="M 189 128 L 197 122 L 197 134 Z"/>
</svg>
